<svg width="11" height="20" viewBox="0 0 11 20" fill="none" xmlns="http://www.w3.org/2000/svg">
<path fill-rule="evenodd" clip-rule="evenodd" d="M10.5409 19.9311C10.927 19.7564 11.1015 19.3141 10.9399 18.9192C10.8969 18.814 9.63989 17.5635 6.38474 14.3874L1.88898 10.0009L6.3849 5.6139C9.64443 2.43335 10.8971 1.18696 10.9401 1.0816C10.9727 1.00168 10.9994 0.864822 10.9994 0.777477C10.9994 0.213745 10.4156 -0.16287 9.90295 0.0700473C9.67466 0.173767 0.1702 9.4506 0.0694074 9.66813C-0.0231324 9.86775 -0.0231324 10.1331 0.0694074 10.3327C0.1702 10.5502 9.67465 19.8271 9.90295 19.9308C10.1058 20.023 10.3376 20.0231 10.5409 19.9311Z" fill="#94989D"/>
</svg>
