<svg width="19" height="13" viewBox="0 0 19 13" fill="none" xmlns="http://www.w3.org/2000/svg">
<path fill-rule="evenodd" clip-rule="evenodd" d="M1.28252 0.0520734C0.970144 0.12814 0.736307 0.258034 0.500764 0.486377C0.258171 0.72158 0.111517 0.980574 0.0439596 1.29318C-0.0151026 1.5664 -0.0144348 11.4363 0.0446645 11.705C0.180559 12.3229 0.700173 12.8288 1.33071 12.9573C1.61055 13.0144 17.3911 13.0142 17.6693 12.9571C18.2989 12.8281 18.8247 12.3166 18.9563 11.705C19.0151 11.4313 19.0143 1.56113 18.9554 1.29318C18.8186 0.671363 18.3048 0.171065 17.6693 0.0410263C17.3694 -0.0203827 1.53621 -0.00969664 1.28252 0.0520734ZM13.4881 4.588C11.5089 6.5153 9.84449 8.11551 9.7894 8.14403C9.73427 8.17255 9.60409 8.19587 9.50002 8.19587C9.39596 8.19587 9.26578 8.17255 9.21065 8.14403C9.15556 8.11551 7.49113 6.5153 5.51192 4.588L1.91336 1.08383H9.50002H17.0867L13.4881 4.588ZM3.51772 8.83664L1.11557 11.1742V6.49909V1.82398L3.51772 4.16154L5.91986 6.49909L3.51772 8.83664ZM17.8845 6.50808V11.1742L15.4824 8.83667L13.0803 6.49916L15.473 4.17056C16.789 2.88982 17.8699 1.84196 17.8751 1.84196C17.8802 1.84196 17.8845 3.94171 17.8845 6.50808ZM7.568 8.13554C8.36564 8.90357 8.46866 8.99025 8.73756 9.11932L9.03242 9.26087H9.49809C9.96009 9.26087 9.96606 9.25979 10.2567 9.12477C10.528 8.9987 10.6148 8.9257 11.4358 8.13316L12.3219 7.27758L14.7043 9.59597L17.0868 11.9143H9.5001H1.91343L4.28757 9.60384C5.59335 8.33306 6.66882 7.29333 6.67751 7.29333C6.68619 7.29333 7.0869 7.67232 7.568 8.13554Z" fill="#94989D"/>
</svg>
