<svg width="11" height="22" viewBox="0 0 11 22" fill="none" xmlns="http://www.w3.org/2000/svg">
<path fill-rule="evenodd" clip-rule="evenodd" d="M7.13281 0.0532567C5.00865 0.396676 3.67782 1.76145 3.28002 4.00436C3.22618 4.30788 3.20676 4.81258 3.19107 6.31675L3.17096 8.24088H1.5855H0V10.1973V12.1536H1.58984H3.17969V17.0768V22H5.15625H7.13281V17.0768V12.1536H8.6582C9.49717 12.1536 10.1836 12.1425 10.1836 12.1288C10.1836 12.1152 10.2899 11.2557 10.4199 10.2188C10.5499 9.18183 10.6562 8.31264 10.6562 8.28719C10.6562 8.25485 10.1234 8.24088 8.8923 8.24088H7.1283L7.14231 6.51024C7.15464 4.97808 7.16495 4.75741 7.23224 4.58611C7.40029 4.15816 7.65432 3.91789 8.11014 3.75584C8.33375 3.67633 8.48401 3.66623 9.67871 3.65032L11 3.63269V1.89371C11 0.540889 10.9881 0.150646 10.9463 0.136499C10.8038 0.0881705 9.66157 0.0231157 8.6582 0.00613174C7.78693 -0.00861631 7.45117 0.00178902 7.13281 0.0532567Z" fill="#94989D"/>
</svg>
