<svg width="20" height="20" viewBox="0 0 20 20" fill="none" xmlns="http://www.w3.org/2000/svg">
<path fill-rule="evenodd" clip-rule="evenodd" d="M4.74676 0.0567859C2.51938 0.369514 0.726637 1.97202 0.179128 4.13967C0.127572 4.34377 0.0665248 4.66896 0.0434418 4.86232C-0.0144806 5.34758 -0.0144806 14.6503 0.0434418 15.1356C0.315087 17.4119 1.93445 19.2633 4.14136 19.8209C4.34544 19.8724 4.67059 19.9335 4.86393 19.9566C5.34914 20.0145 14.6509 20.0145 15.1361 19.9566C17.1876 19.7117 18.9028 18.3729 19.6482 16.4347C19.7688 16.121 19.9099 15.5267 19.9566 15.1356C20.0145 14.6503 20.0145 5.34758 19.9566 4.86232C19.7117 2.8106 18.373 1.09516 16.4351 0.349749C16.1214 0.229087 15.5272 0.0879963 15.1361 0.0413175C14.6015 -0.0225094 5.21185 -0.0085253 4.74676 0.0567859ZM14.9686 1.21442C16.9852 1.43246 18.5656 3.01298 18.7836 5.02985C18.8439 5.58785 18.8439 14.41 18.7836 14.968C18.5656 16.9849 16.9852 18.5654 14.9686 18.7835C14.4106 18.8438 5.58938 18.8438 5.03145 18.7835C3.01479 18.5654 1.43444 16.9849 1.21642 14.968C1.15611 14.41 1.15611 5.58785 1.21642 5.02985C1.31977 4.07397 1.70491 3.23875 2.36393 2.5415C3.05892 1.80617 4.01486 1.32188 4.9811 1.21559C5.46112 1.16278 14.4812 1.16173 14.9686 1.21442ZM15.2835 2.61322C14.7023 2.8113 14.2759 3.32481 14.1757 3.94726C14.0757 4.56803 14.3616 5.20516 14.9007 5.56301C15.2485 5.79394 15.6573 5.88624 16.051 5.82281C16.6907 5.7198 17.2179 5.26711 17.4009 4.66373C17.4791 4.40584 17.4762 3.92827 17.395 3.68765C17.2234 3.1795 16.8174 2.7733 16.3106 2.60287C16.0542 2.51666 15.5519 2.5217 15.2835 2.61322ZM16.0524 3.7739C16.4659 4.01823 16.2935 4.65814 15.8141 4.65814C15.5482 4.65814 15.3402 4.4501 15.3402 4.18421C15.3402 3.82117 15.7413 3.59008 16.0524 3.7739ZM9.10168 4.59068C8.47754 4.699 7.79465 4.94337 7.2855 5.24059C5.55685 6.24963 4.53065 8.02347 4.53276 9.99894C4.53432 11.4904 5.08382 12.8202 6.13142 13.8679C7.17938 14.916 8.51116 15.4662 10 15.4662C11.4888 15.4662 12.8206 14.916 13.8686 13.8679C14.9165 12.8199 15.4667 11.4879 15.4667 9.99894C15.4667 8.50994 14.9165 7.17801 13.8686 6.12995C13.0441 5.30543 12.0208 4.78076 10.8593 4.58701C10.4514 4.519 9.50319 4.52096 9.10168 4.59068ZM10.7251 5.76226C12.7849 6.12151 14.2963 7.91456 14.2963 9.99894C14.2963 12.3638 12.3646 14.2957 10 14.2957C7.63538 14.2957 5.70367 12.3638 5.70367 9.99894C5.70367 7.3486 8.12192 5.30829 10.7251 5.76226Z" fill="#94989D"/>
</svg>
