<svg width="14" height="17" viewBox="0 0 14 17" fill="none" xmlns="http://www.w3.org/2000/svg">
<path fill-rule="evenodd" clip-rule="evenodd" d="M6.25612 0.0210263C5.25268 0.132219 4.24377 0.459485 3.43505 0.936093C2.91023 1.24541 2.59751 1.48631 2.12415 1.9459C1.45498 2.59565 1.08295 3.10732 0.686464 3.92319C0.249135 4.82307 0.0452059 5.6294 0.00565178 6.61495C-0.0565386 8.16448 0.396321 9.62305 1.27477 10.7024C1.37888 10.8304 2.62584 12.2757 4.04576 13.9142C6.78491 17.075 6.71304 16.9998 6.99879 16.9998C7.28429 16.9998 7.21276 17.0746 9.95178 13.9142C11.3719 12.2757 12.6189 10.8304 12.7229 10.7024C14.0004 9.13159 14.3546 6.75998 13.6259 4.65767C13.4906 4.26724 13.1505 3.56841 12.9208 3.20871C11.8336 1.50625 10.0981 0.378566 8.08485 0.0663543C7.68406 0.00421108 6.64128 -0.0216431 6.25612 0.0210263ZM7.77776 1.22943C9.96558 1.51552 11.7792 2.99499 12.4812 5.06639C12.7163 5.75987 12.7635 6.0552 12.7658 6.84757C12.7681 7.65241 12.7227 7.96582 12.512 8.60005C12.3512 9.0839 12.1406 9.4878 11.8575 9.85504C11.5636 10.2364 7.03577 15.4546 6.99885 15.4546C6.96221 15.4546 2.43517 10.2372 2.14608 9.86182C1.74766 9.34447 1.47876 8.7336 1.30935 7.96083C1.243 7.65816 1.23285 7.51497 1.23285 6.88081C1.23285 6.24701 1.24303 6.10328 1.30928 5.80078C1.80071 3.55658 3.39462 1.89682 5.58851 1.34478C6.21691 1.18666 7.09633 1.14034 7.77776 1.22943ZM6.59472 3.54508C5.22 3.7015 4.0845 4.6834 3.71099 6.03872C3.64663 6.2722 3.63462 6.39964 3.63462 6.84757C3.63462 7.29673 3.6466 7.42315 3.7119 7.66175C4.05192 8.90448 5.05041 9.84251 6.31449 10.1067C6.66127 10.1792 7.3363 10.1792 7.68308 10.1067C8.95348 9.84118 9.94048 8.91229 10.2866 7.65643C10.3892 7.28417 10.3974 6.44291 10.302 6.08325C9.931 4.68449 8.79043 3.70133 7.35406 3.54209C7.01262 3.50424 6.95138 3.50447 6.59472 3.54508ZM7.64167 4.80403C8.19725 4.98521 8.66057 5.36631 8.91877 5.85441C9.09468 6.18696 9.16313 6.46165 9.16377 6.83764C9.16445 7.22828 9.11854 7.42245 8.93809 7.79172C8.65001 8.38128 8.08891 8.80867 7.43161 8.93921C6.9369 9.03747 6.49368 8.97796 6.01754 8.74936C5.59977 8.54874 5.26673 8.21585 5.05948 7.79172C4.87903 7.42245 4.83312 7.22828 4.8338 6.83764C4.83444 6.46165 4.90289 6.18696 5.0788 5.85441C5.38268 5.27994 5.98046 4.85298 6.66043 4.72477C6.85752 4.68762 7.42535 4.73348 7.64167 4.80403Z" fill="#94989D"/>
</svg>
