<svg width="174" height="176" viewBox="0 0 174 176" fill="none" xmlns="http://www.w3.org/2000/svg">
<path fill-rule="evenodd" clip-rule="evenodd" d="M0 21.2414V42.4828H21H42V21.2414V0H21H0V21.2414ZM48 9.10345C48 17.1949 48.333 18.2069 51 18.2069C52.9995 18.2069 54 19.2189 54 21.2414C54 23.2639 52.9995 24.2759 51 24.2759C49.0005 24.2759 48 25.2879 48 27.3103C48 29.3328 49.0005 30.3448 51 30.3448C52.9995 30.3448 54 29.3328 54 27.3103C54 25.2879 55.0005 24.2759 57 24.2759C59.667 24.2759 60 25.2879 60 33.3793C60 41.4708 59.667 42.4828 57 42.4828C55.0005 42.4828 54 41.4708 54 39.4483C54 37.4258 52.9995 36.4138 51 36.4138C49.0005 36.4138 48 37.4258 48 39.4483C48 41.4708 49.0005 42.4828 51 42.4828C52.9995 42.4828 54 43.4948 54 45.5172C54 48.3833 52.9995 48.5517 36 48.5517C19.0005 48.5517 18 48.7201 18 51.5862C18 54.1154 19.0005 54.6207 24 54.6207C28.9995 54.6207 30 55.1259 30 57.6552C30 59.6777 28.9995 60.6897 27 60.6897C25.0005 60.6897 24 61.7017 24 63.7241C24 65.7466 22.9995 66.7586 21 66.7586C19.0005 66.7586 18 67.7706 18 69.7931C18 71.8156 19.0005 72.8276 21 72.8276C22.9995 72.8276 24 73.8396 24 75.8621C24 77.8846 22.9995 78.8966 21 78.8966C18.4995 78.8966 18 79.9086 18 84.9655C18 90.0225 18.4995 91.0345 21 91.0345C23.5005 91.0345 24 90.0225 24 84.9655C24 79.9086 24.4995 78.8966 27 78.8966C29.667 78.8966 30 77.8846 30 69.7931C30 61.7017 30.333 60.6897 33 60.6897C34.9995 60.6897 36 61.7017 36 63.7241C36 65.7466 37.0005 66.7586 39 66.7586C40.9995 66.7586 42 67.7706 42 69.7931C42 71.8156 40.9995 72.8276 39 72.8276C37.0005 72.8276 36 73.8396 36 75.8621C36 77.8846 37.0005 78.8966 39 78.8966C40.9995 78.8966 42 77.8846 42 75.8621C42 73.3328 43.0005 72.8276 48 72.8276C52.9995 72.8276 54 73.3328 54 75.8621C54 77.8846 52.9995 78.8966 51 78.8966C49.0005 78.8966 48 79.9086 48 81.931C48 84.6287 46.9995 84.9655 39 84.9655C31.0005 84.9655 30 85.3023 30 88C30 90.5292 31.0005 91.0345 36 91.0345C40.9995 91.0345 42 91.5397 42 94.069C42 96.0914 40.9995 97.1034 39 97.1034C37.0005 97.1034 36 98.1154 36 100.138C36 102.16 34.9995 103.172 33 103.172C31.0005 103.172 30 102.16 30 100.138C30 98.1154 28.9995 97.1034 27 97.1034C25.0005 97.1034 24 98.1154 24 100.138C24 102.836 22.9995 103.172 15 103.172C7.0005 103.172 6 102.836 6 100.138C6 98.1154 4.9995 97.1034 3 97.1034C1.0005 97.1034 0 98.1154 0 100.138C0 102.16 1.0005 103.172 3 103.172C4.9995 103.172 6 104.184 6 106.207C6 108.736 7.0005 109.241 12 109.241H18V118.345V127.448H30C40.9995 127.448 42 127.195 42 124.414C42 122.391 43.0005 121.379 45 121.379C47.8335 121.379 48 122.391 48 139.586C48 156.781 48.1665 157.793 51 157.793C52.9995 157.793 54 156.781 54 154.759C54 152.736 55.0005 151.724 57 151.724C58.9995 151.724 60 152.736 60 154.759C60 157.288 61.0005 157.793 66 157.793H72V163.862C72 168.919 72.4995 169.931 75 169.931C76.9995 169.931 78 170.943 78 172.966C78 174.988 79.0005 176 81 176C82.9995 176 84 174.988 84 172.966C84 170.943 85.0005 169.931 87 169.931C88.9995 169.931 90 170.943 90 172.966C90 174.988 91.0005 176 93 176C94.9995 176 96 174.988 96 172.966C96 170.943 97.0005 169.931 99 169.931C100.999 169.931 102 168.919 102 166.897C102 164.874 100.999 163.862 99 163.862C97.0005 163.862 96 162.85 96 160.828C96 158.805 97.0005 157.793 99 157.793C100.999 157.793 102 156.781 102 154.759C102 152.736 100.999 151.724 99 151.724C97.0005 151.724 96 150.712 96 148.69C96 146.16 97.0005 145.655 102 145.655C106.999 145.655 108 145.15 108 142.621C108 140.091 106.999 139.586 102 139.586H96V133.517C96 128.46 96.4995 127.448 99 127.448C100.999 127.448 102 128.46 102 130.483C102 133.012 103.001 133.517 108 133.517C112.999 133.517 114 134.022 114 136.552C114 138.574 115.001 139.586 117 139.586C118.999 139.586 120 140.598 120 142.621C120 144.643 118.999 145.655 117 145.655C115.001 145.655 114 146.667 114 148.69C114 151.219 115.001 151.724 120 151.724C124.999 151.724 126 152.229 126 154.759C126 157.288 124.999 157.793 120 157.793C115.001 157.793 114 158.298 114 160.828C114 162.85 112.999 163.862 111 163.862C109.001 163.862 108 164.874 108 166.897C108 168.919 109.001 169.931 111 169.931C112.999 169.931 114 170.943 114 172.966C114 175.495 115.001 176 120 176C124.999 176 126 175.495 126 172.966C126 170.436 124.999 169.931 120 169.931C115.001 169.931 114 169.426 114 166.897C114 164.367 115.001 163.862 120 163.862C124.999 163.862 126 163.357 126 160.828C126 158.805 127.001 157.793 129 157.793C130.999 157.793 132 156.781 132 154.759C132 151.978 133 151.724 144 151.724C155 151.724 156 151.471 156 148.69C156 146.667 154.999 145.655 153 145.655C151.001 145.655 150 144.643 150 142.621C150 140.598 151.001 139.586 153 139.586C155.501 139.586 156 138.574 156 133.517V127.448H162C166.999 127.448 168 126.943 168 124.414C168 122.391 166.999 121.379 165 121.379C163.001 121.379 162 120.367 162 118.345C162 116.322 160.999 115.31 159 115.31C157.001 115.31 156 114.298 156 112.276C156 109.747 157.001 109.241 162 109.241C166.999 109.241 168 109.747 168 112.276C168 114.298 169.001 115.31 171 115.31C172.999 115.31 174 114.298 174 112.276C174 110.253 172.999 109.241 171 109.241C169.001 109.241 168 108.229 168 106.207C168 103.678 166.999 103.172 162 103.172C157.001 103.172 156 102.667 156 100.138C156 98.1154 157.001 97.1034 159 97.1034C161.501 97.1034 162 96.0914 162 91.0345C162 85.9775 162.499 84.9655 165 84.9655C167.501 84.9655 168 85.9775 168 91.0345C168 96.0914 168.499 97.1034 171 97.1034C173.8 97.1034 174 96.0914 174 81.931C174 67.7706 173.8 66.7586 171 66.7586C168.499 66.7586 168 67.7706 168 72.8276V78.8966H156C145 78.8966 144 78.6432 144 75.8621C144 73.3328 142.999 72.8276 138 72.8276C133.001 72.8276 132 72.3223 132 69.7931C132 67.7706 133.001 66.7586 135 66.7586C136.999 66.7586 138 65.7466 138 63.7241C138 61.7017 139.001 60.6897 141 60.6897C142.999 60.6897 144 61.7017 144 63.7241C144 65.7466 145.001 66.7586 147 66.7586C148.999 66.7586 150 67.7706 150 69.7931C150 71.8156 151.001 72.8276 153 72.8276C154.999 72.8276 156 71.8156 156 69.7931C156 67.7706 157.001 66.7586 159 66.7586C160.999 66.7586 162 65.7466 162 63.7241C162 61.7017 163.001 60.6897 165 60.6897C166.999 60.6897 168 59.6777 168 57.6552C168 55.6327 169.001 54.6207 171 54.6207C172.999 54.6207 174 53.6087 174 51.5862C174 48.8886 173 48.5517 165 48.5517H156V57.6552C156 65.7466 155.667 66.7586 153 66.7586C150.333 66.7586 150 65.7466 150 57.6552C150 49.5637 149.667 48.5517 147 48.5517C145.001 48.5517 144 49.5637 144 51.5862C144 53.6087 142.999 54.6207 141 54.6207C139.001 54.6207 138 55.6327 138 57.6552C138 59.6777 136.999 60.6897 135 60.6897C133.001 60.6897 132 61.7017 132 63.7241C132 65.7466 130.999 66.7586 129 66.7586C127.001 66.7586 126 67.7706 126 69.7931C126 71.8156 124.999 72.8276 123 72.8276C121.001 72.8276 120 73.8396 120 75.8621C120 77.8846 121.001 78.8966 123 78.8966C124.999 78.8966 126 79.9086 126 81.931C126 84.4603 124.999 84.9655 120 84.9655C115.001 84.9655 114 84.4603 114 81.931C114 79.4018 112.999 78.8966 108 78.8966C103.001 78.8966 102 78.3913 102 75.8621C102 73.3328 103.001 72.8276 108 72.8276C112.999 72.8276 114 72.3223 114 69.7931C114 67.2639 112.999 66.7586 108 66.7586C103.001 66.7586 102 67.2639 102 69.7931C102 71.8156 100.999 72.8276 99 72.8276C96.333 72.8276 96 71.8156 96 63.7241C96 55.6327 96.333 54.6207 99 54.6207C100.999 54.6207 102 55.6327 102 57.6552C102 60.3528 103 60.6897 111 60.6897C119 60.6897 120 60.3528 120 57.6552C120 55.1259 121.001 54.6207 126 54.6207C130.999 54.6207 132 54.1154 132 51.5862C132 49.057 130.999 48.5517 126 48.5517C121.001 48.5517 120 48.0465 120 45.5172C120 43.4948 121.001 42.4828 123 42.4828C124.999 42.4828 126 41.4708 126 39.4483C126 37.4258 124.999 36.4138 123 36.4138C121.001 36.4138 120 37.4258 120 39.4483C120 41.4708 118.999 42.4828 117 42.4828C114.499 42.4828 114 41.4708 114 36.4138C114 31.3568 114.499 30.3448 117 30.3448C118.999 30.3448 120 29.3328 120 27.3103C120 25.2879 121.001 24.2759 123 24.2759C124.999 24.2759 126 23.2639 126 21.2414C126 19.2189 124.999 18.2069 123 18.2069C121.001 18.2069 120 17.1949 120 15.1724C120 13.1499 121.001 12.1379 123 12.1379C124.999 12.1379 126 11.1259 126 9.10345C126 6.57421 124.999 6.06897 120 6.06897H114V15.1724C114 23.2639 113.667 24.2759 111 24.2759C109.001 24.2759 108 23.2639 108 21.2414C108 18.5437 107 18.2069 99 18.2069C91.0005 18.2069 90 18.5437 90 21.2414C90 23.2639 88.9995 24.2759 87 24.2759C85.0005 24.2759 84 25.2879 84 27.3103C84 29.3328 85.0005 30.3448 87 30.3448C88.9995 30.3448 90 29.3328 90 27.3103C90 24.7811 91.0005 24.2759 96 24.2759C100.999 24.2759 102 24.7811 102 27.3103C102 29.3328 103.001 30.3448 105 30.3448C107.667 30.3448 108 31.3568 108 39.4483V48.5517H102C97.0005 48.5517 96 48.0465 96 45.5172C96 43.4948 97.0005 42.4828 99 42.4828C100.999 42.4828 102 41.4708 102 39.4483C102 37.4258 100.999 36.4138 99 36.4138C97.0005 36.4138 96 37.4258 96 39.4483C96 41.4708 94.9995 42.4828 93 42.4828C91.0005 42.4828 90 41.4708 90 39.4483C90 37.4258 88.9995 36.4138 87 36.4138C85.0005 36.4138 84 37.4258 84 39.4483C84 41.4708 82.9995 42.4828 81 42.4828C78.4995 42.4828 78 41.4708 78 36.4138C78 31.3568 77.5005 30.3448 75 30.3448C72.4995 30.3448 72 29.3328 72 24.2759C72 19.2189 72.4995 18.2069 75 18.2069C76.9995 18.2069 78 17.1949 78 15.1724C78 12.6432 76.9995 12.1379 72 12.1379C67.0005 12.1379 66 11.6327 66 9.10345C66 7.08097 64.9995 6.06897 63 6.06897C61.0005 6.06897 60 7.08097 60 9.10345C60 11.1259 58.9995 12.1379 57 12.1379C54.4995 12.1379 54 11.1259 54 6.06897C54 1.012 53.5005 0 51 0C48.333 0 48 1.012 48 9.10345ZM72 3.03448C72 5.05697 73.0005 6.06897 75 6.06897C76.9995 6.06897 78 5.05697 78 3.03448C78 1.012 76.9995 0 75 0C73.0005 0 72 1.012 72 3.03448ZM84 3.03448C84 5.56372 85.0005 6.06897 90 6.06897C94.9995 6.06897 96 6.57421 96 9.10345C96 11.1259 97.0005 12.1379 99 12.1379C100.999 12.1379 102 11.1259 102 9.10345C102 7.08097 103.001 6.06897 105 6.06897C106.999 6.06897 108 5.05697 108 3.03448C108 0.253379 107 0 96 0C85.0005 0 84 0.253379 84 3.03448ZM132 21.2414V42.4828H153H174V21.2414V0H153H132V21.2414ZM36 21.2414V36.4138H21H6V21.2414V6.06897H21H36V21.2414ZM168 21.2414V36.4138H153H138V21.2414V6.06897H153H168V21.2414ZM12 21.2414V30.3448H21H30V21.2414V12.1379H21H12V21.2414ZM144 21.2414V30.3448H153H162V21.2414V12.1379H153H144V21.2414ZM72 36.4138C72 41.4708 72.4995 42.4828 75 42.4828C77.7495 42.4828 78 43.4948 78 54.6207C78 65.7466 77.7495 66.7586 75 66.7586C73.0005 66.7586 72 67.7706 72 69.7931C72 71.8156 70.9995 72.8276 69 72.8276C67.0005 72.8276 66 73.8396 66 75.8621C66 77.8846 67.0005 78.8966 69 78.8966C70.9995 78.8966 72 79.9086 72 81.931C72 83.9535 73.0005 84.9655 75 84.9655C76.9995 84.9655 78 85.9775 78 88C78 90.0225 79.0005 91.0345 81 91.0345C82.9995 91.0345 84 90.0225 84 88C84 85.9775 85.0005 84.9655 87 84.9655C88.9995 84.9655 90 85.9775 90 88C90 90.0225 91.0005 91.0345 93 91.0345C94.9995 91.0345 96 90.0225 96 88C96 85.4708 97.0005 84.9655 102 84.9655C106.999 84.9655 108 85.4708 108 88C108 90.0225 109.001 91.0345 111 91.0345C112.999 91.0345 114 92.0465 114 94.069C114 96.0914 115.001 97.1034 117 97.1034C118.999 97.1034 120 96.0914 120 94.069C120 92.0465 121.001 91.0345 123 91.0345C124.999 91.0345 126 90.0225 126 88C126 85.9775 127.001 84.9655 129 84.9655C131.501 84.9655 132 85.9775 132 91.0345C132 96.0914 132.499 97.1034 135 97.1034C137.501 97.1034 138 96.0914 138 91.0345C138 85.9775 138.499 84.9655 141 84.9655C142.999 84.9655 144 85.9775 144 88C144 90.0225 145.001 91.0345 147 91.0345C148.999 91.0345 150 90.0225 150 88C150 85.9775 151.001 84.9655 153 84.9655C155.501 84.9655 156 85.9775 156 91.0345C156 96.0914 155.501 97.1034 153 97.1034C151.001 97.1034 150 98.1154 150 100.138C150 102.16 151.001 103.172 153 103.172C154.999 103.172 156 104.184 156 106.207C156 108.229 154.999 109.241 153 109.241C151.001 109.241 150 108.229 150 106.207C150 104.184 148.999 103.172 147 103.172C144.333 103.172 144 104.184 144 112.276C144 120.367 143.667 121.379 141 121.379C138.499 121.379 138 120.367 138 115.31C138 110.253 137.501 109.241 135 109.241C133.001 109.241 132 108.229 132 106.207C132 104.184 130.999 103.172 129 103.172C127.001 103.172 126 102.16 126 100.138C126 98.1154 124.999 97.1034 123 97.1034C121.001 97.1034 120 98.1154 120 100.138C120 102.667 118.999 103.172 114 103.172C109.001 103.172 108 103.678 108 106.207C108 108.229 109.001 109.241 111 109.241C112.999 109.241 114 110.253 114 112.276C114 114.805 115.001 115.31 120 115.31C124.999 115.31 126 115.816 126 118.345C126 120.367 124.999 121.379 123 121.379C120.499 121.379 120 122.391 120 127.448C120 132.505 119.501 133.517 117 133.517C114.499 133.517 114 132.505 114 127.448V121.379H108H102V115.31C102 110.253 101.501 109.241 99 109.241C97.0005 109.241 96 108.229 96 106.207C96 104.184 94.9995 103.172 93 103.172C91.0005 103.172 90 102.16 90 100.138C90 98.1154 88.9995 97.1034 87 97.1034C85.0005 97.1034 84 98.1154 84 100.138C84 102.667 82.9995 103.172 78 103.172H72V112.276C72 120.367 72.333 121.379 75 121.379C77.5005 121.379 78 120.367 78 115.31V109.241H84C88.9995 109.241 90 109.747 90 112.276C90 114.298 91.0005 115.31 93 115.31C95.5005 115.31 96 116.322 96 121.379C96 126.436 95.5005 127.448 93 127.448C90.4995 127.448 90 126.436 90 121.379C90 116.322 89.5005 115.31 87 115.31C85.0005 115.31 84 116.322 84 118.345C84 120.367 82.9995 121.379 81 121.379C79.0005 121.379 78 122.391 78 124.414C78 126.436 79.0005 127.448 81 127.448C83.667 127.448 84 128.46 84 136.552C84 144.643 83.667 145.655 81 145.655C79.0005 145.655 78 144.643 78 142.621C78 140.598 76.9995 139.586 75 139.586C73.0005 139.586 72 138.574 72 136.552C72 134.529 73.0005 133.517 75 133.517C76.9995 133.517 78 132.505 78 130.483C78 128.46 76.9995 127.448 75 127.448C73.0005 127.448 72 126.436 72 124.414C72 122.391 70.9995 121.379 69 121.379C66.333 121.379 66 122.391 66 130.483V139.586H60C55.0005 139.586 54 139.081 54 136.552C54 134.529 55.0005 133.517 57 133.517C58.9995 133.517 60 132.505 60 130.483C60 128.46 58.9995 127.448 57 127.448C55.0005 127.448 54 126.436 54 124.414C54 121.885 55.0005 121.379 60 121.379C64.9995 121.379 66 120.874 66 118.345C66 116.322 64.9995 115.31 63 115.31C61.0005 115.31 60 114.298 60 112.276C60 110.253 61.0005 109.241 63 109.241C64.9995 109.241 66 108.229 66 106.207C66 104.184 64.9995 103.172 63 103.172C61.0005 103.172 60 102.16 60 100.138C60 97.4403 61.0005 97.1034 69 97.1034C76.9995 97.1034 78 96.7666 78 94.069C78 92.0465 76.9995 91.0345 75 91.0345C73.0005 91.0345 72 90.0225 72 88C72 85.9775 70.9995 84.9655 69 84.9655C67.0005 84.9655 66 85.9775 66 88C66 90.5292 64.9995 91.0345 60 91.0345H54V84.9655C54 79.9086 54.4995 78.8966 57 78.8966C58.9995 78.8966 60 77.8846 60 75.8621C60 73.8396 58.9995 72.8276 57 72.8276C55.0005 72.8276 54 71.8156 54 69.7931C54 67.2639 52.9995 66.7586 48 66.7586C43.0005 66.7586 42 66.2534 42 63.7241C42 61.7017 40.9995 60.6897 39 60.6897C37.0005 60.6897 36 59.6777 36 57.6552C36 55.1259 37.0005 54.6207 42 54.6207C46.9995 54.6207 48 55.1259 48 57.6552C48 60.4363 49.0005 60.6897 60 60.6897H72V54.6207C72 49.5637 71.5005 48.5517 69 48.5517C67.0005 48.5517 66 49.5637 66 51.5862C66 53.6087 64.9995 54.6207 63 54.6207C61.0005 54.6207 60 53.6087 60 51.5862C60 49.5637 61.0005 48.5517 63 48.5517C65.667 48.5517 66 47.5397 66 39.4483C66 31.3568 66.333 30.3448 69 30.3448C71.5005 30.3448 72 31.3568 72 36.4138ZM90 45.5172C90 47.5397 91.0005 48.5517 93 48.5517C94.9995 48.5517 96 49.5637 96 51.5862C96 53.6087 94.9995 54.6207 93 54.6207C90.333 54.6207 90 55.6327 90 63.7241C90 71.8156 90.333 72.8276 93 72.8276C94.9995 72.8276 96 73.8396 96 75.8621C96 78.3913 94.9995 78.8966 90 78.8966H84V60.6897C84 43.4948 84.1665 42.4828 87 42.4828C88.9995 42.4828 90 43.4948 90 45.5172ZM0 57.6552C0 65.7466 0.333 66.7586 3 66.7586C5.667 66.7586 6 65.7466 6 57.6552C6 49.5637 5.667 48.5517 3 48.5517C0.333 48.5517 0 49.5637 0 57.6552ZM0 78.8966C0 83.9535 0.4995 84.9655 3 84.9655C5.5005 84.9655 6 83.9535 6 78.8966C6 73.8396 5.5005 72.8276 3 72.8276C0.4995 72.8276 0 73.8396 0 78.8966ZM132 75.8621C132 77.8846 130.999 78.8966 129 78.8966C127.001 78.8966 126 77.8846 126 75.8621C126 73.8396 127.001 72.8276 129 72.8276C130.999 72.8276 132 73.8396 132 75.8621ZM60 81.931C60 83.9535 61.0005 84.9655 63 84.9655C64.9995 84.9655 66 83.9535 66 81.931C66 79.9086 64.9995 78.8966 63 78.8966C61.0005 78.8966 60 79.9086 60 81.931ZM96 94.069C96 96.0914 97.0005 97.1034 99 97.1034C100.999 97.1034 102 96.0914 102 94.069C102 92.0465 100.999 91.0345 99 91.0345C97.0005 91.0345 96 92.0465 96 94.069ZM54 103.172V109.241H45C37.0005 109.241 36 108.905 36 106.207C36 103.678 37.0005 103.172 42 103.172C46.9995 103.172 48 102.667 48 100.138C48 98.1154 49.0005 97.1034 51 97.1034C53.5005 97.1034 54 98.1154 54 103.172ZM30 112.276C30 114.805 31.0005 115.31 36 115.31C40.9995 115.31 42 115.816 42 118.345C42 121.042 40.9995 121.379 33 121.379H24V115.31C24 110.253 24.4995 109.241 27 109.241C28.9995 109.241 30 110.253 30 112.276ZM144 136.552V145.655H135H126V136.552V127.448H135H144V136.552ZM0 154.759V176H21H42V154.759V133.517H21H0V154.759ZM132 136.552C132 138.574 133.001 139.586 135 139.586C136.999 139.586 138 138.574 138 136.552C138 134.529 136.999 133.517 135 133.517C133.001 133.517 132 134.529 132 136.552ZM36 154.759V169.931H21H6V154.759V139.586H21H36V154.759ZM96 142.621C96 144.643 94.9995 145.655 93 145.655C91.0005 145.655 90 144.643 90 142.621C90 140.598 91.0005 139.586 93 139.586C94.9995 139.586 96 140.598 96 142.621ZM168 148.69V157.793H162C157.001 157.793 156 158.298 156 160.828C156 162.85 154.999 163.862 153 163.862C151.001 163.862 150 162.85 150 160.828C150 158.298 148.999 157.793 144 157.793H138V163.862V169.931H150C161 169.931 162 169.678 162 166.897C162 164.874 163.001 163.862 165 163.862C166.999 163.862 168 164.874 168 166.897C168 168.919 169.001 169.931 171 169.931C173.8 169.931 174 168.919 174 154.759C174 140.598 173.8 139.586 171 139.586C168.333 139.586 168 140.598 168 148.69ZM12 154.759V163.862H21H30V154.759V145.655H21H12V154.759ZM72 148.69C72 150.712 73.0005 151.724 75 151.724C76.9995 151.724 78 152.736 78 154.759C78 156.781 76.9995 157.793 75 157.793C73.0005 157.793 72 156.781 72 154.759C72 152.229 70.9995 151.724 66 151.724C61.0005 151.724 60 151.219 60 148.69C60 146.16 61.0005 145.655 66 145.655C70.9995 145.655 72 146.16 72 148.69ZM90 154.759C90 156.781 88.9995 157.793 87 157.793C85.0005 157.793 84 156.781 84 154.759C84 152.736 85.0005 151.724 87 151.724C88.9995 151.724 90 152.736 90 154.759ZM60 166.897C60 169.426 58.9995 169.931 54 169.931C49.0005 169.931 48 170.436 48 172.966C48 175.495 49.0005 176 54 176C58.9995 176 60 175.495 60 172.966C60 170.943 61.0005 169.931 63 169.931C64.9995 169.931 66 168.919 66 166.897C66 164.874 64.9995 163.862 63 163.862C61.0005 163.862 60 164.874 60 166.897ZM84 166.897C84 168.919 82.9995 169.931 81 169.931C79.0005 169.931 78 168.919 78 166.897C78 164.874 79.0005 163.862 81 163.862C82.9995 163.862 84 164.874 84 166.897ZM96 166.897C96 168.919 94.9995 169.931 93 169.931C91.0005 169.931 90 168.919 90 166.897C90 164.874 91.0005 163.862 93 163.862C94.9995 163.862 96 164.874 96 166.897Z" fill="#1C2025"/>
</svg>
