<svg width="20" height="20" viewBox="0 0 20 20" fill="none" xmlns="http://www.w3.org/2000/svg">
<path fill-rule="evenodd" clip-rule="evenodd" d="M0 3.51562V7.03125H3.51562H7.03125V3.51562V0H3.51562H0V3.51562ZM10 1.17188V2.34375H9.21875H8.4375V3.125V3.90625H9.21875H10V4.6875V5.46875H9.21875H8.4375V7.71484V9.96094H7.73438H7.03125V9.17969V8.39844H6.25H5.46875V9.17969V9.96094H4.6875H3.90625V9.17969V8.39844H1.95312H0V9.96094V11.5234H0.78125H1.5625V10.7422V9.96094H2.73438H3.90625V10.7422V11.5234H6.17188H8.4375V12.6367V13.75H9.21875H10V14.5312V15.3125H9.21875H8.4375V16.0938V16.875H9.21875H10V18.4375V20H11.5625H13.125V19.2188V18.4375H12.3438H11.5625V17.6562V16.875H10.7812H10V16.0938V15.3125H11.5625H13.125V16.0938V16.875H14.6875H16.25V17.6562V18.4375H15.4688H14.6875V19.2188V20H15.4688H16.25V19.2188V18.4375H17.0312H17.8125V19.2188V20H18.9062H20V19.2188V18.4375H18.9062H17.8125V17.6562V16.875H17.0312H16.25V16.0938V15.3125H18.125H20V13.418V11.5234H19.2188H18.4375V10.7422V9.96094H19.2188H20V9.17969V8.39844H19.2188H18.4375V9.17969V9.96094H17.3438H16.25V9.17969V8.39844H13.9062H11.5625V9.17969V9.96094H10.7812H10V8.49609V7.03125H10.7812H11.5625V5.46875V3.90625H10.7812H10V3.125V2.34375H10.7812H11.5625V1.17188V0H10.7812H10V1.17188ZM12.9688 3.51562V7.03125H16.4844H20V3.51562V0H16.4844H12.9688V3.51562ZM5.46875 3.51562V5.46875H3.51562H1.5625V3.51562V1.5625H3.51562H5.46875V3.51562ZM18.4375 3.51562V5.46875H16.4844H14.5312V3.51562V1.5625H16.4844H18.4375V3.51562ZM2.73438 3.51562V4.29688H3.51562H4.29688V3.51562V2.73438H3.51562H2.73438V3.51562ZM15.7031 3.51562V4.29688H16.4844H17.2656V3.51562V2.73438H16.4844H15.7031V3.51562ZM10 10.7422V11.5234H10.7812H11.5625V10.7422V9.96094H13.9062H16.25V10.7422V11.5234H17.3438H18.4375V12.6367V13.75H17.3438H16.25V14.5312V15.3125H14.6875H13.125V13.418V11.5234H12.3438H11.5625V12.6367V13.75H10.7812H10V12.6367V11.5234H9.21875H8.4375V10.7422V9.96094H9.21875H10V10.7422ZM14.6875 12.3047V13.0859H15.4688H16.25V12.3047V11.5234H15.4688H14.6875V12.3047ZM0 16.4844V20H3.51562H7.03125V16.4844V12.9688H3.51562H0V16.4844ZM5.46875 16.4844V18.4375H3.51562H1.5625V16.4844V14.5312H3.51562H5.46875V16.4844ZM2.73438 16.4844V17.2656H3.51562H4.29688V16.4844V15.7031H3.51562H2.73438V16.4844Z" fill="#94989D"/>
</svg>
