<svg width="12" height="21" viewBox="0 0 12 21" fill="none" xmlns="http://www.w3.org/2000/svg">
<path fill-rule="evenodd" clip-rule="evenodd" d="M1.01513 0.0572044C0.598075 0.187767 0.295167 0.454553 0.106526 0.857442L0 1.085V10.5017V19.9185L0.107918 20.1491C0.259741 20.4734 0.476355 20.6959 0.791918 20.8515L1.06309 20.9853L5.91469 20.9962C10.2346 21.0059 10.7907 21 10.9887 20.9424C11.4073 20.8204 11.6972 20.5653 11.8935 20.146L12 19.9185V10.5017V1.085L11.8935 0.857442C11.6983 0.440562 11.411 0.186331 10.9954 0.0626616C10.8012 0.00488923 10.2436 -0.00204509 5.98231 0.000416797C2.13735 0.0026325 1.15352 0.0138751 1.01513 0.0572044ZM11.0033 0.773573C11.0825 0.82794 11.1917 0.937371 11.246 1.01677L11.3447 1.16103V10.5017V19.8424L11.246 19.9867C11.1917 20.0661 11.0825 20.1755 11.0033 20.2299L10.8593 20.3288H6H1.14074L0.996737 20.2299C0.917488 20.1755 0.80826 20.0661 0.753993 19.9867L0.65529 19.8424L0.64329 10.5868C0.635222 4.38701 0.645051 1.28331 0.673024 1.18615C0.721597 1.01718 0.929775 0.788714 1.1058 0.711041C1.20573 0.666974 2.1281 0.658521 6.04395 0.665784L10.8593 0.674688L11.0033 0.773573ZM4.70805 1.5345C4.64466 1.59798 4.60751 1.68209 4.60751 1.76202C4.60751 1.84195 4.64466 1.92607 4.70805 1.98954L4.80856 2.09027H6H7.19144L7.29195 1.98954C7.35535 1.92607 7.39249 1.84195 7.39249 1.76202C7.39249 1.68209 7.35535 1.59798 7.29195 1.5345L7.19144 1.43377H6H4.80856L4.70805 1.5345ZM5.70598 17.7785C5.19571 17.9215 4.83227 18.4797 4.91029 19.0007C4.94887 19.2585 5.14923 19.5852 5.35446 19.725C5.58651 19.8831 5.76405 19.9396 6.01634 19.9359C6.94763 19.922 7.43447 18.8232 6.81944 18.1232C6.53549 17.8 6.10501 17.6668 5.70598 17.7785ZM6.19016 18.4469C6.42565 18.5588 6.50871 18.8045 6.38932 19.0358C6.30532 19.1986 6.17287 19.2825 6 19.2825C5.82713 19.2825 5.69468 19.1986 5.61068 19.0358C5.49268 18.8072 5.57304 18.5621 5.80333 18.4484C5.97367 18.3643 6.01618 18.3641 6.19016 18.4469Z" fill="#94989D"/>
</svg>
