<svg width="22" height="18" viewBox="0 0 22 18" fill="none" xmlns="http://www.w3.org/2000/svg">
<path fill-rule="evenodd" clip-rule="evenodd" d="M20.2804 0.113753C20.1048 0.176184 15.5412 1.88622 10.139 3.91384C4.08884 6.18469 0.272642 7.6412 0.201599 7.70662C0.049983 7.84616 -0.0319172 8.12443 0.0116614 8.35201C0.0863396 8.74195 0.113361 8.75427 2.94484 9.69097C5.11051 10.4074 5.54826 10.5379 5.63414 10.4929C5.69054 10.4633 6.3173 10.0904 7.02694 9.66416C7.73657 9.23793 10.4159 7.63283 12.9811 6.09723C17.7657 3.23298 17.7994 3.21483 17.7994 3.49122C17.7994 3.54961 16.2179 5.00785 13.3415 7.60188C10.8897 9.81294 8.8309 11.6759 8.76644 11.7419C8.65163 11.8595 8.64598 11.9079 8.48547 14.1587C8.37021 15.7745 8.33587 16.4952 8.36967 16.5894C8.42641 16.7474 8.64308 16.8636 8.79371 16.8167C8.85228 16.7985 9.54187 16.169 10.3261 15.4178C11.1104 14.6666 11.7705 14.052 11.7931 14.052C11.8156 14.052 12.9773 14.9014 14.3745 15.9395C15.7718 16.9776 16.9924 17.867 17.087 17.9161C17.4582 18.1088 18.0025 17.957 18.2599 17.5889C18.3432 17.4698 18.781 15.5967 20.1838 9.3573C21.1827 4.91466 22 1.21565 22 1.13719C22 0.849155 21.8837 0.601502 21.6332 0.356063C21.2465 -0.0228051 20.8597 -0.0920711 20.2804 0.113753Z" fill="#94989D"/>
</svg>
