<svg width="21" height="23" viewBox="0 0 21 23" fill="none" xmlns="http://www.w3.org/2000/svg">
<path fill-rule="evenodd" clip-rule="evenodd" d="M7.47956 0.0432149C4.28529 0.351783 1.49036 2.57524 0.449611 5.63583C0.0293956 6.87145 -0.0197194 7.43131 0.00537682 10.6983C0.0260733 13.3973 0.0398561 13.5827 0.2835 14.4482C0.959212 16.8482 2.675 18.8682 4.87 19.8477L5.24523 20.0151V21.3366C5.24523 22.789 5.25699 22.8615 5.50953 22.9662C5.58311 22.9967 5.70195 23.0088 5.77351 22.9931C5.85868 22.9744 6.35279 22.5568 7.20188 21.7862L8.50011 20.6079L11.0816 20.5816C13.1561 20.5604 13.7379 20.5414 14.0446 20.4843C15.8506 20.1485 17.304 19.3925 18.5581 18.1365C19.8143 16.8785 20.5915 15.3572 20.9021 13.549C20.9926 13.0219 21.0377 8.46708 20.9608 7.62275C20.7775 5.61187 19.9609 3.85582 18.5537 2.44647C17.1633 1.05403 15.4018 0.225307 13.4385 0.0399327C12.8554 -0.0151446 8.05637 -0.0124919 7.47956 0.0432149ZM13.8094 0.962624C17.0415 1.48152 19.5194 3.96301 20.0356 7.19774C20.1377 7.83798 20.1383 12.7342 20.0364 13.3809C19.5274 16.6082 17.0773 19.0814 13.8464 19.6293C13.5226 19.6842 12.8944 19.7027 10.799 19.7188L8.15949 19.7391L7.43188 20.3952C7.03173 20.756 6.5831 21.1639 6.43495 21.3016L6.16558 21.5521L6.14313 20.5833C6.11794 19.4959 6.10003 19.43 5.79299 19.2946C4.65285 18.7922 4.00483 18.4011 3.37446 17.835C2.19876 16.779 1.43371 15.4737 1.03504 13.8434L0.919032 13.3691L0.902016 10.523C0.883744 7.47416 0.894429 7.27417 1.12021 6.42697C1.88027 3.57527 4.22616 1.45072 7.15326 0.963208C7.7237 0.868206 13.2182 0.867711 13.8094 0.962624ZM10.8407 3.43885C10.7552 3.52455 10.7224 3.60386 10.7224 3.72508C10.7224 3.98527 10.8485 4.1045 11.2729 4.2455C12.4753 4.64507 13.4296 5.22507 14.33 6.10338C15.2705 7.02077 15.8822 7.9841 16.3169 9.23218C16.4854 9.71582 16.5884 9.86429 16.7856 9.90767C16.9322 9.93991 17.1617 9.83663 17.2308 9.70728C17.353 9.47874 17.1941 8.91628 16.7389 7.96513C15.8785 6.16754 14.4579 4.73863 12.6753 3.87794C11.9822 3.54325 11.364 3.32034 11.129 3.32034C11.0053 3.32034 10.9269 3.35257 10.8407 3.43885ZM6.11619 4.5306C5.72947 4.82042 4.677 5.78456 4.51708 5.99552C4.0768 6.57637 4.00483 7.40033 4.31097 8.35598C4.42411 8.70928 4.51762 8.87721 5.03288 9.65229C6.3531 11.6384 7.60701 12.9601 9.33066 14.1824C10.2392 14.8267 11.8352 15.7932 12.6309 16.181C13.289 16.5018 13.9234 16.5084 14.5747 16.2011C15.0421 15.9806 15.3163 15.6792 15.9414 14.699C16.53 13.776 16.5633 13.6726 16.3455 13.4424C16.2017 13.2905 13.6679 11.6418 13.3704 11.5067C12.8684 11.2787 12.2016 11.4601 11.8371 11.9241C11.7372 12.0512 11.6403 12.161 11.6217 12.168C11.6032 12.1751 11.3776 12.0995 11.1204 12C9.87384 11.5178 9.10861 10.7496 8.56866 9.43806L8.4311 9.10386L8.70698 8.83517C9.07543 8.47634 9.17335 8.25657 9.17079 7.79396C9.16931 7.51853 9.14673 7.39192 9.07445 7.25335C8.9816 7.07544 6.8988 4.63082 6.71078 4.47907C6.56047 4.35777 6.31894 4.37868 6.11619 4.5306ZM11.1425 5.38819C10.908 5.48292 10.8285 5.82238 10.992 6.03059C11.0449 6.0979 11.2163 6.19596 11.4073 6.26816C12.6475 6.73693 13.5261 7.5099 14.0871 8.62574C14.1803 8.81121 14.2824 9.04388 14.3139 9.1428C14.4311 9.51152 14.5289 9.65297 14.6992 9.70009C14.8959 9.75449 15.0324 9.70859 15.1611 9.54475C15.2864 9.38523 15.2818 9.24036 15.1389 8.84201C14.5858 7.29984 13.3032 6.0153 11.7635 5.46161C11.4194 5.33788 11.3015 5.32389 11.1425 5.38819ZM7.40113 6.58001C7.85129 7.09932 8.24721 7.58899 8.28098 7.66816C8.3727 7.88317 8.30154 8.0136 7.86907 8.42342C7.42708 8.84232 7.42672 8.84376 7.62641 9.41031C7.94274 10.3078 8.33476 10.9844 8.86546 11.5487C9.47073 12.1922 10.143 12.5954 11.2197 12.9608C11.9819 13.2194 12.0204 13.2119 12.3354 12.7445C12.6044 12.3452 12.6676 12.292 12.8718 12.2926C13.0059 12.293 13.245 12.4299 14.2347 13.0726C14.9829 13.5585 15.4236 13.8712 15.4048 13.9029C15.1052 14.4079 14.6006 15.1169 14.4472 15.2483C14.2036 15.4572 13.8535 15.5674 13.5215 15.5398C13.21 15.514 12.718 15.27 11.5242 14.5495C9.06201 13.0634 7.82996 11.9895 6.40024 10.0834C6.04589 9.61093 5.35123 8.56675 5.23607 8.3335C5.10327 8.0644 5.00617 7.61066 5.00451 7.25142C5.00208 6.73099 5.1127 6.55362 5.82922 5.9292L6.39005 5.44043L6.48635 5.53813C6.53933 5.59186 6.95097 6.06071 7.40113 6.58001ZM11.1763 7.15983C10.9615 7.27907 10.8847 7.57267 11.0184 7.76379C11.0577 7.82 11.2547 7.94269 11.4561 8.03639C11.9776 8.27905 12.2521 8.54355 12.4813 9.0245C12.722 9.52955 12.8004 9.61489 13.0233 9.61489C13.1571 9.61489 13.2296 9.58382 13.3298 9.48347C13.4877 9.32529 13.4974 9.1762 13.3717 8.83967C13.1058 8.12811 12.4315 7.45873 11.72 7.20007C11.3959 7.08228 11.3254 7.07706 11.1763 7.15983Z" fill="#94989D"/>
</svg>
