<svg width="24" height="23" viewBox="0 0 24 23" fill="none" xmlns="http://www.w3.org/2000/svg">
<path fill-rule="evenodd" clip-rule="evenodd" d="M11.0718 0.0136635C7.80745 0.304942 4.95745 1.68229 2.8998 3.96303C1.37768 5.6502 0.437636 7.60795 0.0900484 9.81469C-0.0283684 10.5663 -0.0303428 12.1728 0.0861936 12.8962C0.285138 14.1309 0.641986 15.2305 1.20098 16.3312L1.44035 16.8025L0.729236 19.8921C0.338164 21.5913 0.0254574 22.9886 0.0343892 22.9972C0.043368 23.0057 0.134707 22.9941 0.237423 22.9713C0.340139 22.9485 1.8098 22.6275 3.50331 22.258L6.58243 21.5861L7.02902 21.7785C8.21949 22.2916 9.50821 22.6259 10.7814 22.7518C11.5688 22.8296 13.2519 22.7827 13.9514 22.6635C16.0962 22.2981 17.931 21.5098 19.5805 20.245C20.0937 19.8515 20.974 19.009 21.3835 18.5193C22.81 16.8136 23.713 14.75 23.951 12.6522C24.0166 12.074 24.0163 10.7444 23.9504 10.1727C23.5542 6.73429 21.4794 3.61395 18.3145 1.69642C17.0496 0.930054 15.346 0.33958 13.7044 0.0984603C13.2264 0.0282387 11.5232 -0.0265981 11.0718 0.0136635ZM12.9793 1.83281C15.1889 2.0392 17.2618 2.92581 18.8519 4.34473C20.6156 5.91853 21.7174 7.90876 22.0464 10.1152C22.1482 10.798 22.1492 12.0345 22.0484 12.6971C21.7825 14.4461 21.0242 16.1031 19.8747 17.4476C19.5305 17.8501 18.7717 18.5697 18.3583 18.8856C16.9421 19.9675 15.1422 20.6993 13.3376 20.9265C12.723 21.004 11.342 21.015 10.8049 20.9468C9.62733 20.7972 8.54564 20.4871 7.50847 20.0017L6.83623 19.6872L4.66849 20.1605C3.47623 20.4209 2.49679 20.6288 2.492 20.6225C2.48715 20.6162 2.69038 19.7204 2.94357 18.6318C3.19676 17.5431 3.40511 16.608 3.40661 16.5536C3.40807 16.4993 3.33271 16.3297 3.23907 16.1769C2.16138 14.4173 1.68611 12.3056 1.92506 10.3388C2.56011 5.11267 7.48901 1.32003 12.9793 1.83281ZM7.79203 6.46848C7.5473 6.58436 7.16013 6.9854 6.92151 7.36998C6.4289 8.1641 6.38485 9.18571 6.79985 10.1904C7.30172 11.4054 8.8198 13.2599 10.1792 14.3188C11.2276 15.1354 12.471 15.7102 14.0334 16.1005C14.7237 16.2729 15.4306 16.2882 15.9145 16.1411C16.4781 15.9699 17.1711 15.4957 17.3888 15.1324C17.6239 14.7401 17.756 13.8587 17.6061 13.6825C17.5367 13.6008 15.5931 12.674 15.238 12.5533C14.8727 12.429 14.8233 12.451 14.4432 12.9074C13.6479 13.8624 13.5712 13.9242 13.2905 13.8376C13.0658 13.7682 12.244 13.3791 11.9415 13.1988C11.0309 12.6561 10.0814 11.7226 9.49763 10.7961C9.25732 10.4148 9.27071 10.3541 9.68919 9.9258C9.90459 9.70542 10.0941 9.46016 10.1675 9.30676L10.289 9.05278L10.1937 8.80392C10.1412 8.66708 9.92076 8.14179 9.70367 7.63665C9.40873 6.95027 9.26625 6.6746 9.13998 6.54576L8.97098 6.37333L8.48185 6.37338C8.07869 6.37338 7.95746 6.39011 7.79203 6.46848Z" fill="#94989D"/>
</svg>
